<svg preserveAspectRatio="none" overflow="visible" style="display: block;" width="8.33969" height="8.33398" viewBox="0 0 8.33969 8.33398" fill="none" xmlns="http://www.w3.org/2000/svg">
<path id="Union" d="M6.7699 0.269108C7.12892 -0.0897028 7.71166 -0.0897028 8.07068 0.269108C8.42931 0.62789 8.42942 1.20922 8.07068 1.56794L5.46912 4.16657L8.0697 6.7652C8.42873 7.12401 8.42873 7.7062 8.0697 8.06501C7.71066 8.42355 7.12883 8.42372 6.7699 8.06501L4.16931 5.46637L1.5697 8.06501C1.21073 8.42366 0.628902 8.42361 0.269899 8.06501C-0.0891221 7.7062 -0.0891223 7.12401 0.269899 6.7652L2.86951 4.16657L0.268923 1.56794C-0.0896952 1.20925 -0.0895866 0.627867 0.268923 0.269108C0.627944 -0.0897028 1.21068 -0.0897028 1.5697 0.269108L4.16931 2.86676L6.7699 0.269108Z" fill="#0078FF"/>
</svg>
